<svg width="17" height="17" viewBox="0 0 17 17" fill="none" xmlns="http://www.w3.org/2000/svg">
<path d="M0.0644531 14.7402C0.0644531 13.8069 0.864449 13.1403 1.66445 13.1403H12.7311V2.07357C12.7311 1.14023 13.3978 0.473633 14.3311 0.473633C15.2644 0.473633 15.9311 1.14023 15.9311 2.07357V14.7402C15.9311 15.1402 15.7978 15.5401 15.3978 15.9401C15.1311 16.2068 14.7311 16.4736 14.1978 16.4736H1.53113C0.864461 16.3403 0.0644531 15.6736 0.0644531 14.7402Z" fill="#F96614"/>
<path d="M0.464844 2.47363C0.464844 2.07363 0.598169 1.67344 0.998169 1.27344C1.66484 0.606771 2.73152 0.606771 3.26485 1.27344L14.0648 12.0736C14.7315 12.7402 14.7315 13.8068 14.0648 14.3402C13.3982 15.0068 12.3315 15.0068 11.7982 14.3402L0.998169 3.54004C0.731502 3.27337 0.464844 2.87363 0.464844 2.47363Z" fill="#F96614"/>
</svg>
