<svg width="17" height="17" viewBox="0 0 17 17" fill="none" xmlns="http://www.w3.org/2000/svg">
<path d="M14.3311 16.0348C13.3978 16.0348 12.7311 15.2349 12.7311 14.4349V3.36816H1.66445C0.731116 3.36816 0.0644531 2.70156 0.0644531 1.76823C0.0644531 0.834896 0.731116 0.167969 1.66445 0.167969H14.3311C14.7311 0.167969 15.1311 0.301497 15.5311 0.701497C15.7978 0.968164 16.0645 1.36803 16.0645 1.90137V14.568C15.9311 15.2347 15.2644 16.0348 14.3311 16.0348Z" fill="#F96614"/>
<path d="M2.06523 15.6351C1.66523 15.6351 1.26523 15.5019 0.865234 15.1019C0.198568 14.4352 0.198568 13.3683 0.865234 12.835L11.6652 2.03516C12.3319 1.36849 13.3986 1.36849 13.9319 2.03516C14.5986 2.70182 14.5986 3.76842 13.9319 4.30176L3.1319 15.1019C2.86523 15.3686 2.46523 15.6351 2.06523 15.6351Z" fill="#F96614"/>
</svg>
