<svg width="28" height="28" viewBox="0 0 28 28" fill="none" xmlns="http://www.w3.org/2000/svg">
<path d="M24.4727 23.625C25.0195 23.0052 25.5117 22.3398 25.9492 21.6289C26.3867 20.918 26.7559 20.1706 27.0566 19.3867C27.3574 18.6029 27.5898 17.7917 27.7539 16.9531C27.918 16.1146 28 15.2487 28 14.3555C28 13.4258 27.9089 12.5234 27.7266 11.6484C27.5625 10.7734 27.3164 9.93034 26.9883 9.11914C26.6602 8.30794 26.2591 7.53776 25.7852 6.80859C25.3112 6.07943 24.7826 5.40495 24.1992 4.78516C24.1992 4.78516 24.1992 4.7806 24.1992 4.77148C24.1992 4.76237 24.1992 4.75781 24.1992 4.75781C23.5794 4.11979 22.9049 3.53646 22.1758 3.00781C21.4466 2.47917 20.6719 2.02344 19.8516 1.64062C19.0312 1.25781 18.1745 0.957031 17.2812 0.738281C16.3698 0.519531 15.4401 0.391928 14.4922 0.355469H14.2188C14.1823 0.355469 14.1458 0.355469 14.1094 0.355469C14.0729 0.355469 14.0365 0.355469 14 0.355469C13.9635 0.355469 13.9271 0.355469 13.8906 0.355469C13.8542 0.355469 13.8177 0.355469 13.7812 0.355469H13.5078C12.5599 0.391928 11.6302 0.519531 10.7188 0.738281C9.82552 0.957031 8.96875 1.25781 8.14844 1.64062C7.32812 2.02344 6.55339 2.47917 5.82422 3.00781C5.09505 3.53646 4.42057 4.11979 3.80078 4.75781C3.80078 4.75781 3.80078 4.76237 3.80078 4.77148C3.80078 4.7806 3.80078 4.78516 3.80078 4.78516C3.21745 5.40495 2.6888 6.07943 2.21484 6.80859C1.74089 7.53776 1.33984 8.30794 1.01172 9.11914C0.683594 9.93034 0.4375 10.7734 0.273438 11.6484C0.0911458 12.5234 0 13.4258 0 14.3555C0 15.2487 0.0820312 16.1146 0.246094 16.9531C0.410156 17.7917 0.642578 18.6029 0.943359 19.3867C1.24414 20.1706 1.61328 20.918 2.05078 21.6289C2.48828 22.3398 2.98047 23.0052 3.52734 23.625C3.52734 23.625 3.52734 23.6296 3.52734 23.6387C3.52734 23.6478 3.52734 23.6523 3.52734 23.6523C3.54557 23.6523 3.55469 23.6523 3.55469 23.6523C3.55469 23.6523 3.55469 23.6615 3.55469 23.6797C4.17448 24.3724 4.85807 24.9922 5.60547 25.5391C6.35286 26.1042 7.14583 26.5872 7.98438 26.9883C8.82292 27.3893 9.70703 27.7083 10.6367 27.9453C11.5664 28.1823 12.5234 28.3099 13.5078 28.3281L13.7812 28.3555C13.8177 28.3555 13.8542 28.3555 13.8906 28.3555C13.9271 28.3555 13.9635 28.3555 14 28.3555C14.0365 28.3555 14.0729 28.3555 14.1094 28.3555C14.1458 28.3555 14.1823 28.3555 14.2188 28.3555L14.4922 28.3281C15.4766 28.2917 16.4336 28.1641 17.3633 27.9453C18.293 27.7083 19.1771 27.3893 20.0156 26.9883C20.8542 26.5872 21.6471 26.1042 22.3945 25.5391C23.1419 24.974 23.8255 24.3451 24.4453 23.6523C24.4453 23.6523 24.4544 23.6523 24.4727 23.6523C24.4727 23.6523 24.4727 23.6478 24.4727 23.6387C24.4727 23.6296 24.4727 23.625 24.4727 23.625ZM0.984375 14.8203H6.78125C6.79948 15.8594 6.90885 16.8711 7.10938 17.8555C7.3099 18.8398 7.58333 19.7969 7.92969 20.7266C7.25521 20.9818 6.58984 21.2734 5.93359 21.6016C5.27734 21.9297 4.63932 22.3034 4.01953 22.7227C3.10807 21.6471 2.38802 20.4395 1.85938 19.0996C1.33073 17.7598 1.03906 16.3333 0.984375 14.8203ZM4.29297 5.66016C4.89453 6.0612 5.51432 6.41667 6.15234 6.72656C6.79036 7.03646 7.4375 7.3099 8.09375 7.54688C7.69271 8.53125 7.37826 9.55664 7.15039 10.623C6.92253 11.6895 6.79948 12.7695 6.78125 13.8633H0.984375C1.0026 13.0794 1.09375 12.3138 1.25781 11.5664C1.42188 10.819 1.64518 10.099 1.92773 9.40625C2.21029 8.71354 2.55208 8.05729 2.95312 7.4375C3.35417 6.81771 3.80078 6.22526 4.29297 5.66016ZM27.0156 13.8633H21.2188C21.2005 12.7695 21.0775 11.6895 20.8496 10.623C20.6217 9.55664 20.3073 8.53125 19.9062 7.54688C20.5625 7.3099 21.2096 7.03646 21.8477 6.72656C22.4857 6.41667 23.1055 6.0612 23.707 5.66016C24.1992 6.22526 24.6458 6.81771 25.0469 7.4375C25.4479 8.05729 25.7897 8.71354 26.0723 9.40625C26.3548 10.099 26.5781 10.819 26.7422 11.5664C26.9062 12.3138 26.9974 13.0794 27.0156 13.8633ZM13.5078 7.57422C12.8151 7.55599 12.127 7.49674 11.4434 7.39648C10.7598 7.29622 10.0898 7.14583 9.43359 6.94531C9.92578 5.94271 10.5137 4.99479 11.1973 4.10156C11.8809 3.20833 12.651 2.37891 13.5078 1.61328V7.57422ZM13.5078 8.53125V13.8633H7.73828C7.77474 12.8242 7.89779 11.7988 8.10742 10.7871C8.31706 9.77539 8.6224 8.79557 9.02344 7.84766C9.7526 8.04818 10.4909 8.20768 11.2383 8.32617C11.9857 8.44466 12.7422 8.51302 13.5078 8.53125ZM14.4922 8.53125C15.2578 8.51302 16.0143 8.44466 16.7617 8.32617C17.5091 8.20768 18.2474 8.04818 18.9766 7.84766C19.3776 8.79557 19.6829 9.77539 19.8926 10.7871C20.1022 11.7988 20.2253 12.8242 20.2617 13.8633H14.4922V8.53125ZM14.4922 7.57422V1.61328C15.349 2.37891 16.1191 3.20833 16.8027 4.10156C17.4863 4.99479 18.0742 5.94271 18.5664 6.94531C17.9102 7.14583 17.2402 7.29622 16.5566 7.39648C15.873 7.49674 15.1849 7.55599 14.4922 7.57422ZM19.4961 6.67188C19.0404 5.6875 18.4935 4.75781 17.8555 3.88281C17.2174 3.00781 16.4974 2.1875 15.6953 1.42188C17.1172 1.60417 18.4479 2.00521 19.6875 2.625C20.9271 3.24479 22.0391 4.01953 23.0234 4.94922C22.4766 5.3138 21.9069 5.63737 21.3145 5.91992C20.722 6.20247 20.1159 6.45312 19.4961 6.67188ZM8.50391 6.67188C7.88411 6.45312 7.27799 6.20247 6.68555 5.91992C6.0931 5.63737 5.52344 5.3138 4.97656 4.94922C5.96094 4.01953 7.07292 3.24479 8.3125 2.625C9.55208 2.00521 10.8828 1.60417 12.3047 1.42188C11.5026 2.1875 10.7826 3.00781 10.1445 3.88281C9.50651 4.75781 8.95964 5.6875 8.50391 6.67188ZM7.73828 14.8203H13.5078V19.6875C12.724 19.7057 11.9401 19.7741 11.1562 19.8926C10.3724 20.0111 9.60677 20.1888 8.85938 20.4258C8.51302 19.5326 8.24414 18.6211 8.05273 17.6914C7.86133 16.7617 7.75651 15.8047 7.73828 14.8203ZM13.5078 20.6445V27.0703C12.5964 26.2682 11.7806 25.3796 11.0605 24.4043C10.3405 23.429 9.72526 22.4036 9.21484 21.3281C9.90755 21.1276 10.6139 20.9681 11.334 20.8496C12.054 20.7311 12.7786 20.6628 13.5078 20.6445ZM14.4922 27.0703V20.6445C15.2214 20.6628 15.946 20.7311 16.666 20.8496C17.3861 20.9681 18.0924 21.1276 18.7852 21.3281C18.2747 22.4036 17.6595 23.429 16.9395 24.4043C16.2194 25.3796 15.4036 26.2682 14.4922 27.0703ZM14.4922 19.6875V14.8203H20.2617C20.2435 15.8047 20.1387 16.7617 19.9473 17.6914C19.7559 18.6211 19.487 19.5326 19.1406 20.4258C18.3932 20.1888 17.6276 20.0111 16.8438 19.8926C16.0599 19.7741 15.276 19.7057 14.4922 19.6875ZM21.2188 14.8203H27.0156C26.9609 16.3333 26.6693 17.7598 26.1406 19.0996C25.612 20.4395 24.8919 21.6471 23.9805 22.7227C23.3607 22.3034 22.7227 21.9297 22.0664 21.6016C21.4102 21.2734 20.7448 20.9818 20.0703 20.7266C20.4167 19.7969 20.6901 18.8398 20.8906 17.8555C21.0911 16.8711 21.2005 15.8594 21.2188 14.8203ZM4.67578 23.4609C5.24089 23.0781 5.82878 22.7318 6.43945 22.4219C7.05013 22.112 7.67448 21.8477 8.3125 21.6289C8.78646 22.6862 9.35612 23.6888 10.0215 24.6367C10.6868 25.5846 11.4479 26.4596 12.3047 27.2617C11.5573 27.1706 10.8372 27.0156 10.1445 26.7969C9.43359 26.5781 8.75911 26.3047 8.12109 25.9766C7.48307 25.6484 6.8724 25.2747 6.28906 24.8555C5.70573 24.4362 5.16797 23.9714 4.67578 23.4609ZM15.6953 27.2617C16.5521 26.4596 17.3132 25.5846 17.9785 24.6367C18.6439 23.6888 19.2135 22.6862 19.6875 21.6289C20.3255 21.8477 20.9499 22.112 21.5605 22.4219C22.1712 22.7318 22.7591 23.0781 23.3242 23.4609C22.832 23.9714 22.2943 24.4362 21.7109 24.8555C21.1276 25.2747 20.5169 25.6484 19.8789 25.9766C19.2409 26.3047 18.5664 26.5781 17.8555 26.7969C17.1628 27.0156 16.4427 27.1706 15.6953 27.2617Z" fill="#E3912C"/>
</svg>
