<svg width="30" height="31" viewBox="0 0 30 31" fill="none" xmlns="http://www.w3.org/2000/svg">
<rect y="0.730469" width="30" height="30" rx="5" fill="#E3912C"/>
<rect y="0.730469" width="30" height="30" rx="5" fill="#E3912C"/>
<path d="M15.0059 12.3359C16.7285 12.3359 18.1504 13.7578 18.1504 15.4805C18.1504 17.2305 16.7285 18.625 15.0059 18.625C13.2559 18.625 11.8613 17.2305 11.8613 15.4805C11.8613 13.7578 13.2559 12.3359 15.0059 12.3359ZM15.0059 17.5312C16.127 17.5312 17.0293 16.6289 17.0293 15.4805C17.0293 14.3594 16.127 13.457 15.0059 13.457C13.8574 13.457 12.9551 14.3594 12.9551 15.4805C12.9551 16.6289 13.8848 17.5312 15.0059 17.5312ZM18.998 12.2266C18.998 12.6367 18.6699 12.9648 18.2598 12.9648C17.8496 12.9648 17.5215 12.6367 17.5215 12.2266C17.5215 11.8164 17.8496 11.4883 18.2598 11.4883C18.6699 11.4883 18.998 11.8164 18.998 12.2266ZM21.0762 12.9648C21.1309 13.9766 21.1309 17.0117 21.0762 18.0234C21.0215 19.0078 20.8027 19.8555 20.0918 20.5938C19.3809 21.3047 18.5059 21.5234 17.5215 21.5781C16.5098 21.6328 13.4746 21.6328 12.4629 21.5781C11.4785 21.5234 10.6309 21.3047 9.89258 20.5938C9.18164 19.8555 8.96289 19.0078 8.9082 18.0234C8.85352 17.0117 8.85352 13.9766 8.9082 12.9648C8.96289 11.9805 9.18164 11.1055 9.89258 10.3945C10.6309 9.68359 11.4785 9.46484 12.4629 9.41016C13.4746 9.35547 16.5098 9.35547 17.5215 9.41016C18.5059 9.46484 19.3809 9.68359 20.0918 10.3945C20.8027 11.1055 21.0215 11.9805 21.0762 12.9648ZM19.7637 19.0898C20.0918 18.2969 20.0098 16.3828 20.0098 15.4805C20.0098 14.6055 20.0918 12.6914 19.7637 11.8711C19.5449 11.3516 19.1348 10.9141 18.6152 10.7227C17.7949 10.3945 15.8809 10.4766 15.0059 10.4766C14.1035 10.4766 12.1895 10.3945 11.3965 10.7227C10.8496 10.9414 10.4395 11.3516 10.2207 11.8711C9.89258 12.6914 9.97461 14.6055 9.97461 15.4805C9.97461 16.3828 9.89258 18.2969 10.2207 19.0898C10.4395 19.6367 10.8496 20.0469 11.3965 20.2656C12.1895 20.5938 14.1035 20.5117 15.0059 20.5117C15.8809 20.5117 17.7949 20.5938 18.6152 20.2656C19.1348 20.0469 19.5723 19.6367 19.7637 19.0898Z" fill="white"/>
</svg>
