<svg width="15" height="20" viewBox="0 0 15 20" fill="none" xmlns="http://www.w3.org/2000/svg">
<path d="M7.5 2.43066C8.45703 2.43066 9.27734 2.77246 9.96094 3.45605C10.6445 4.13965 10.9863 4.97363 10.9863 5.95801C10.9863 6.80566 10.6172 7.92676 9.87891 9.32129C9.25 10.4697 8.45703 11.6455 7.5 12.8486C6.51562 11.5635 5.72266 10.374 5.12109 9.28027C4.38281 7.88574 4.01367 6.77832 4.01367 5.95801C4.01367 4.97363 4.35547 4.13965 5.03906 3.45605C5.72266 2.77246 6.54297 2.43066 7.5 2.43066ZM7.5 0.708008C6.54297 0.708008 5.66797 0.94043 4.875 1.40527C4.08203 1.87012 3.44629 2.50586 2.96777 3.3125C2.48926 4.11914 2.25 5.00098 2.25 5.95801C2.25 7.59863 3.125 9.69043 4.875 12.2334C5.75 13.5186 6.625 14.626 7.5 15.5557L8.32031 14.6123C8.97656 13.8193 9.57812 13.0127 10.125 12.1924C10.8906 11.0713 11.4922 10.0322 11.9297 9.0752C12.4766 7.87207 12.75 6.83301 12.75 5.95801C12.75 5.00098 12.5107 4.11914 12.0322 3.3125C11.5537 2.50586 10.918 1.87012 10.125 1.40527C9.33203 0.94043 8.45703 0.708008 7.5 0.708008ZM7.5 4.19434C7.00781 4.19434 6.59082 4.36523 6.24902 4.70703C5.90723 5.04883 5.73633 5.45898 5.73633 5.9375C5.73633 6.41602 5.90723 6.82617 6.24902 7.16797C6.59082 7.50977 7.00781 7.68066 7.5 7.68066C7.99219 7.68066 8.40918 7.50977 8.75098 7.16797C9.09277 6.82617 9.26367 6.41602 9.26367 5.9375C9.26367 5.45898 9.09277 5.04883 8.75098 4.70703C8.40918 4.36523 7.99219 4.19434 7.5 4.19434ZM14.5137 15.5557C14.5137 16.1846 14.1992 16.7725 13.5703 17.3193C12.9414 17.8662 12.0869 18.2969 11.0068 18.6113C9.92676 18.9258 8.75781 19.083 7.5 19.083C6.24219 19.083 5.07324 18.9258 3.99316 18.6113C2.91309 18.2969 2.05859 17.8662 1.42969 17.3193C0.800781 16.7725 0.486328 16.1846 0.486328 15.5557C0.486328 15.0088 0.725586 14.4961 1.2041 14.0176C1.68262 13.5391 2.3457 13.1221 3.19336 12.7666L3.72656 13.5459C2.74219 14.0381 2.25 14.5781 2.25 15.166C2.25 15.7539 2.7627 16.2598 3.78809 16.6836C4.81348 17.1074 6.05078 17.3193 7.5 17.3193C8.94922 17.3193 10.1865 17.1074 11.2119 16.6836C12.2373 16.2598 12.75 15.7539 12.75 15.166C12.75 14.5781 12.2305 14.0381 11.1914 13.5459L11.6836 12.7666C12.5859 13.1221 13.2832 13.5391 13.7754 14.0176C14.2676 14.4961 14.5137 15.0088 14.5137 15.5557Z" fill="#E3912C"/>
</svg>
