<svg width="12" height="21" viewBox="0 0 12 21" fill="none" xmlns="http://www.w3.org/2000/svg">
<path d="M9.98633 15.6943H2.11133V3.43066H9.98633V15.6943ZM6.04883 19.1807C5.69336 19.1807 5.38574 19.0576 5.12598 18.8115C4.86621 18.5654 4.73633 18.2578 4.73633 17.8887C4.73633 17.5195 4.86621 17.2051 5.12598 16.9453C5.38574 16.6855 5.7002 16.5557 6.06934 16.5557C6.43848 16.5557 6.74609 16.6855 6.99219 16.9453C7.23828 17.2051 7.36133 17.5195 7.36133 17.8887C7.36133 18.2578 7.23828 18.5654 6.99219 18.8115C6.74609 19.0576 6.43164 19.1807 6.04883 19.1807ZM9.57617 0.805664H2.5625C1.96094 0.805664 1.44824 1.02441 1.02441 1.46191C0.600586 1.89941 0.388672 2.41895 0.388672 3.02051V17.8682C0.388672 18.4697 0.600586 18.9893 1.02441 19.4268C1.44824 19.8643 1.96094 20.083 2.5625 20.083H9.57617C10.1777 20.083 10.6904 19.8643 11.1143 19.4268C11.5381 18.9893 11.75 18.4697 11.75 17.8682V3.02051C11.75 2.41895 11.5381 1.89941 11.1143 1.46191C10.6904 1.02441 10.1777 0.805664 9.57617 0.805664Z" fill="#E3912C"/>
</svg>
