<svg width="30" height="31" viewBox="0 0 30 31" fill="none" xmlns="http://www.w3.org/2000/svg">
<rect y="0.730469" width="30" height="30" rx="5" fill="#E3912C"/>
<rect y="0.730469" width="30" height="30" rx="5" fill="#E3912C"/>
<path d="M15.3281 8.67188C17.8984 8.67188 20.25 10.4492 20.25 13.1562C20.25 15.6992 18.9375 18.543 16.0391 18.543C15.3281 18.543 14.4805 18.1875 14.125 17.5586C13.5234 20.0195 13.5508 20.4023 12.1836 22.2891C12.0469 22.3438 12.0742 22.3438 11.9922 22.2344C11.9375 21.7148 11.8828 21.2227 11.8828 20.7031C11.8828 19.0352 12.6484 16.6016 13.0312 14.9883C12.8125 14.5508 12.7578 14.0586 12.7578 13.5938C12.7578 11.4062 15.3281 11.0781 15.3281 12.8828C15.3281 13.9492 14.5898 14.9609 14.5898 16C14.5898 16.6836 15.1914 17.1758 15.875 17.1758C17.7617 17.1758 18.3359 14.4688 18.3359 13.0195C18.3359 11.0781 16.9688 10.0117 15.082 10.0117C12.9219 10.0117 11.2539 11.5703 11.2539 13.7578C11.2539 14.8242 11.9102 15.3711 11.9102 15.6172C11.9102 15.8359 11.7461 16.5742 11.4727 16.5742C10.8164 16.5742 9.75 15.4805 9.75 13.5664C9.75 10.5312 12.5117 8.67188 15.3281 8.67188Z" fill="white"/>
</svg>
