<svg width="100" height="100" viewBox="0 0 100 100" fill="none" xmlns="http://www.w3.org/2000/svg">
<rect width="100" height="100" rx="50" fill="white"/>
<g clip-path="url(#clip0_15_1109)">
<path d="M62.5439 50.2607L38.3789 33.5811C38.265 33.4899 38.1283 33.4386 37.9688 33.4272C37.8092 33.4159 37.6611 33.4557 37.5244 33.5469C37.3877 33.6152 37.2795 33.7121 37.1997 33.8374C37.12 33.9627 37.0801 34.1051 37.0801 34.2646V67.5898C37.0801 67.7493 37.12 67.8975 37.1997 68.0342C37.2795 68.1709 37.3877 68.2734 37.5244 68.3418C37.5928 68.3646 37.6611 68.3874 37.7295 68.4102C37.7979 68.4329 37.8548 68.4443 37.9004 68.4443C37.9915 68.4443 38.077 68.4329 38.1567 68.4102C38.2365 68.3874 38.3105 68.3418 38.3789 68.2734L62.5439 51.6279C62.6579 51.5368 62.749 51.4342 62.8174 51.3203C62.8857 51.2064 62.9199 51.0811 62.9199 50.9443C62.9199 50.8076 62.8857 50.6766 62.8174 50.5513C62.749 50.4259 62.6579 50.3291 62.5439 50.2607Z" fill="#FF6B18"/>
</g>
<defs>
<clipPath id="clip0_15_1109">
<rect width="35" height="35" fill="white" transform="matrix(1 0 0 -1 32.5 68)"/>
</clipPath>
</defs>
</svg>
