<svg width="28" height="28" viewBox="0 0 28 28" fill="none" xmlns="http://www.w3.org/2000/svg">
<path d="M18.8945 12.5918C17.9284 12.5918 17.1035 12.25 16.4199 11.5664C15.7363 10.8828 15.3945 10.0579 15.3945 9.0918C15.3945 8.12565 15.7363 7.30078 16.4199 6.61719C17.1035 5.93359 17.9284 5.5918 18.8945 5.5918C19.8607 5.5918 20.6855 5.93359 21.3691 6.61719C22.0527 7.30078 22.3945 8.12565 22.3945 9.0918C22.3945 10.0579 22.0527 10.8828 21.3691 11.5664C20.6855 12.25 19.8607 12.5918 18.8945 12.5918ZM18.8945 6.98633C18.3112 6.98633 17.8145 7.19141 17.4043 7.60156C16.9941 8.01172 16.7891 8.50846 16.7891 9.0918C16.7891 9.67513 16.9941 10.1719 17.4043 10.582C17.8145 10.9922 18.3112 11.1973 18.8945 11.1973C19.4779 11.1973 19.9746 10.9922 20.3848 10.582C20.7949 10.1719 21 9.67513 21 9.0918C21 8.50846 20.7949 8.01172 20.3848 7.60156C19.9746 7.19141 19.4779 6.98633 18.8945 6.98633ZM0.710938 27.9863C0.619792 27.9863 0.528646 27.9681 0.4375 27.9316C0.346354 27.8952 0.264323 27.8496 0.191406 27.7949C0.10026 27.6855 0.0410156 27.5671 0.0136719 27.4395C-0.0136719 27.3118 0 27.1842 0.0546875 27.0566C0.583333 25.5801 1.12565 24.2812 1.68164 23.1602C2.23763 22.0391 2.79362 21.1048 3.34961 20.3574C3.9056 19.61 4.4707 19.0495 5.04492 18.6758C5.61914 18.3021 6.19792 18.1152 6.78125 18.1152C7.16406 18.1152 7.5332 18.1973 7.88867 18.3613C8.24414 18.5254 8.57682 18.7715 8.88672 19.0996C9.39714 19.61 9.69792 20.1022 9.78906 20.5762C9.88021 21.0501 9.88021 21.4603 9.78906 21.8066C9.67969 22.3353 9.41081 22.8594 8.98242 23.3789C8.55404 23.8984 7.9707 24.4134 7.23242 24.9238C6.49414 25.4342 5.60091 25.9447 4.55273 26.4551C3.50456 26.9655 2.29688 27.4668 0.929688 27.959C0.893229 27.959 0.856771 27.9635 0.820312 27.9727C0.783854 27.9818 0.747396 27.9863 0.710938 27.9863ZM6.78125 19.5371C6.4349 19.5371 6.0612 19.6829 5.66016 19.9746C5.25911 20.2663 4.83984 20.7038 4.40234 21.2871C4.0013 21.8522 3.59115 22.5358 3.17188 23.3379C2.7526 24.14 2.33333 25.0514 1.91406 26.0723C2.84375 25.7077 3.68229 25.334 4.42969 24.9512C5.17708 24.5684 5.83333 24.1855 6.39844 23.8027C7.14583 23.2923 7.66081 22.8411 7.94336 22.4492C8.22591 22.0573 8.38542 21.7428 8.42188 21.5059C8.47656 21.2507 8.46289 21.0091 8.38086 20.7812C8.29883 20.5534 8.13932 20.321 7.90234 20.084C7.72005 19.9017 7.5332 19.765 7.3418 19.6738C7.15039 19.5827 6.96354 19.5371 6.78125 19.5371ZM27.2891 -0.0136719C26.3958 -0.0136719 25.5163 0.0273438 24.6504 0.109375C23.7845 0.191406 22.9505 0.305338 22.1484 0.451172C21.3464 0.597006 20.5716 0.788412 19.8242 1.02539C19.0768 1.26237 18.3568 1.52669 17.6641 1.81836C16.5339 2.32878 15.4857 2.93034 14.5195 3.62305C13.5534 4.31576 12.6784 5.10872 11.8945 6.00195C11.7487 6.16602 11.6074 6.33008 11.4707 6.49414C11.334 6.6582 11.2109 6.83138 11.1016 7.01367C10.4818 7.05013 9.86654 7.18685 9.25586 7.42383C8.64518 7.66081 8.02995 7.99805 7.41016 8.43555C6.89974 8.80013 6.38021 9.23307 5.85156 9.73438C5.32292 10.2357 4.80339 10.8053 4.29297 11.4434C3.4362 12.5189 2.75716 13.4987 2.25586 14.3828C1.75456 15.2669 1.49479 15.7363 1.47656 15.791C1.40365 15.9368 1.38542 16.0918 1.42188 16.2559C1.45833 16.4199 1.54948 16.5566 1.69531 16.666C1.75 16.7025 1.8138 16.7344 1.88672 16.7617C1.95964 16.7891 2.03255 16.8027 2.10547 16.8027C2.19661 16.8027 2.2832 16.7845 2.36523 16.748C2.44727 16.7116 2.52474 16.6569 2.59766 16.584C2.59766 16.584 2.75716 16.4473 3.07617 16.1738C3.39518 15.9004 3.83724 15.5996 4.40234 15.2715C4.8763 15.0163 5.46875 14.7565 6.17969 14.4922C6.89062 14.2279 7.68359 14.0684 8.55859 14.0137C8.77734 14.5788 9.14193 15.1621 9.65234 15.7637C10.1628 16.3652 10.5729 16.8118 10.8828 17.1035C11.1927 17.4134 11.6439 17.8236 12.2363 18.334C12.8288 18.8444 13.4076 19.209 13.9727 19.4277C13.918 20.3027 13.763 21.0957 13.5078 21.8066C13.2526 22.5176 12.9883 23.11 12.7148 23.584C12.3867 24.1491 12.0859 24.5911 11.8125 24.9102C11.5391 25.2292 11.4023 25.3887 11.4023 25.3887C11.2747 25.5163 11.2064 25.6667 11.1973 25.8398C11.1882 26.013 11.2292 26.1634 11.3203 26.291C11.3932 26.4004 11.4798 26.4779 11.5801 26.5234C11.6803 26.569 11.7852 26.5918 11.8945 26.5918C11.9492 26.5918 12.0039 26.5872 12.0586 26.5781C12.1133 26.569 12.168 26.5462 12.2227 26.5098C12.2591 26.4915 12.7194 26.2318 13.6035 25.7305C14.4876 25.2292 15.4674 24.5501 16.543 23.6934C17.181 23.1829 17.7507 22.668 18.252 22.1484C18.7533 21.6289 19.1862 21.1048 19.5508 20.5762C19.9883 19.9564 20.3255 19.3411 20.5625 18.7305C20.7995 18.1198 20.9453 17.5137 21 16.9121C21.1641 16.7845 21.3281 16.6523 21.4922 16.5156C21.6562 16.3789 21.8203 16.2376 21.9844 16.0918C22.8776 15.3079 23.6751 14.4329 24.377 13.4668C25.0788 12.5007 25.6758 11.4525 26.168 10.3223C26.4779 9.62956 26.7467 8.90951 26.9746 8.16211C27.2025 7.41471 27.3939 6.63997 27.5488 5.83789C27.7038 5.03581 27.8177 4.20638 27.8906 3.34961C27.9635 2.49284 28 1.60872 28 0.697266V-0.0136719H27.2891ZM4.34766 13.7129C5.02214 12.7467 5.85156 11.7533 6.83594 10.7324C7.82031 9.71159 8.88672 9.00977 10.0352 8.62695C9.57943 9.42904 9.22852 10.1764 8.98242 10.8691C8.73633 11.5618 8.56771 12.1452 8.47656 12.6191C7.65625 12.6556 6.89974 12.7832 6.20703 13.002C5.51432 13.2207 4.89453 13.4577 4.34766 13.7129ZM14.2734 23.6387C14.5469 23.0918 14.7884 22.472 14.998 21.7793C15.2077 21.0866 15.3307 20.3301 15.3672 19.5098C15.8411 19.4368 16.4245 19.2773 17.1172 19.0312C17.8099 18.7852 18.5573 18.4342 19.3594 17.9785C18.9766 19.127 18.2747 20.1888 17.2539 21.1641C16.2331 22.1393 15.2396 22.9642 14.2734 23.6387ZM21.0547 15.0527C19.5964 16.3288 18.2292 17.1719 16.9531 17.582C15.6771 17.9922 14.9297 18.1973 14.7109 18.1973C14.7109 18.1973 14.6289 18.1745 14.4648 18.1289C14.3008 18.0833 14.0273 17.9238 13.6445 17.6504C13.3711 17.4499 13.084 17.222 12.7832 16.9668C12.4824 16.7116 12.1771 16.429 11.8672 16.1191C11.5755 15.8275 11.2975 15.5267 11.0332 15.2168C10.7689 14.9069 10.5456 14.6152 10.3633 14.3418C10.0898 13.959 9.92578 13.6901 9.87109 13.5352C9.81641 13.3802 9.78906 13.3027 9.78906 13.3027C9.78906 13.084 9.99414 12.332 10.4043 11.0469C10.8145 9.76172 11.6667 8.38997 12.9609 6.93164C13.7266 6.05664 14.5924 5.2819 15.5586 4.60742C16.5247 3.93294 17.582 3.36328 18.7305 2.89844C19.8789 2.43359 21.1094 2.07812 22.4219 1.83203C23.7344 1.58594 25.1198 1.44466 26.5781 1.4082C26.5599 2.86654 26.4232 4.25195 26.168 5.56445C25.9128 6.87695 25.5527 8.10742 25.0879 9.25586C24.623 10.4043 24.0534 11.4616 23.3789 12.4277C22.7044 13.3939 21.9297 14.2689 21.0547 15.0527Z" fill="#E3912C"/>
</svg>
