<svg width="17" height="20" viewBox="0 0 17 20" fill="none" xmlns="http://www.w3.org/2000/svg">
<path d="M15.6777 3.25426C15.1582 2.76185 14.5771 2.38571 13.9346 2.12583C13.292 1.86595 12.6426 1.73601 11.9863 1.73601C11.3301 1.73601 10.6875 1.86595 10.0586 2.12583C9.42969 2.38571 8.85547 2.76185 8.33594 3.25426L7.63867 2.51565C8.24023 1.91382 8.91699 1.46245 9.66895 1.16153C10.4209 0.860615 11.2002 0.710157 12.0068 0.710157C12.8135 0.710157 13.5928 0.860615 14.3447 1.16153C15.0967 1.46245 15.7734 1.91382 16.375 2.51565L15.6777 3.25426ZM14.8984 3.95184L14.2012 4.64942C13.5996 4.04759 12.8613 3.74667 11.9863 3.74667C11.1113 3.74667 10.3867 4.04759 9.8125 4.64942L9.11523 3.95184C9.49805 3.5415 9.94238 3.23375 10.4482 3.02858C10.9541 2.82341 11.4736 2.72082 12.0068 2.72082C12.54 2.72082 13.0527 2.82341 13.5449 3.02858C14.0371 3.23375 14.4883 3.5415 14.8984 3.95184ZM14.6113 9.45039C15.1035 9.45039 15.5205 9.62136 15.8623 9.96331C16.2041 10.3053 16.375 10.7224 16.375 11.2148V14.7027C16.375 15.1951 16.2041 15.6123 15.8623 15.9543C15.5205 16.2962 15.1035 16.4672 14.6113 16.4672H2.38867C1.89648 16.4672 1.47949 16.2962 1.1377 15.9543C0.795898 15.6123 0.625 15.1951 0.625 14.7027V11.2148C0.625 10.7224 0.795898 10.3053 1.1377 9.96331C1.47949 9.62136 1.89648 9.45039 2.38867 9.45039H11.125V5.9625H12.8887V9.45039H14.6113ZM5.01367 13.841V12.0766H3.25V13.841H5.01367ZM8.04883 13.841V12.0766H6.32617V13.841H8.04883ZM11.125 13.841V12.0766H9.36133V13.841H11.125ZM4.11133 18.1906H5.875V19.9551H4.11133V18.1906ZM7.63867 18.1906H9.36133V19.9551H7.63867V18.1906ZM11.125 18.1906H12.8887V19.9551H11.125V18.1906Z" fill="#E3912C"/>
</svg>
