<svg width="22" height="22" viewBox="0 0 22 22" fill="none" xmlns="http://www.w3.org/2000/svg">
<path d="M4.08702 12.5431L0.303024 21.0131C0.237024 21.1451 0.259024 21.3211 0.347024 21.4531C0.435024 21.5851 0.567024 21.6291 0.699024 21.5631L20.983 11.4871C21.137 11.3991 21.225 11.1791 21.159 10.9811C21.137 10.8931 21.071 10.8051 20.983 10.7611L0.677024 0.707117C0.567024 0.663117 0.435024 0.685117 0.347024 0.817117C0.259024 0.949117 0.237024 1.12512 0.303024 1.25712L4.08702 9.72712L13.701 11.0031C13.767 11.0031 13.833 11.0691 13.833 11.1351C13.833 11.2011 13.789 11.2671 13.701 11.2671L4.08702 12.5431Z" fill="#F96614"/>
</svg>
