<svg width="19" height="19" viewBox="0 0 19 19" fill="none" xmlns="http://www.w3.org/2000/svg">
<path d="M13.0914 8.11246C13.4274 7.76246 13.7494 7.52446 14.0574 7.39846C14.4074 7.24446 14.7994 7.20946 15.2334 7.29346C16.2134 7.46146 17.0184 7.23046 17.6484 6.60046C18.0964 6.15246 18.4044 5.62046 18.5724 5.00446C18.7544 4.34646 18.7334 3.74446 18.5094 3.19846L16.9764 4.87846C16.8644 5.00446 16.7524 5.08146 16.6404 5.10946C16.5284 5.13746 16.3884 5.13046 16.2204 5.08846L16.1784 5.06746C15.6184 4.92746 15.2544 4.81546 15.0864 4.73146C14.8624 4.63346 14.7014 4.47246 14.6034 4.24846C14.5194 4.09446 14.4074 3.74446 14.2674 3.19846L14.2464 3.15646C14.1904 2.96046 14.1799 2.79246 14.2149 2.65246C14.2499 2.51246 14.3444 2.37946 14.4984 2.25346C14.7224 2.04346 15.0514 1.71446 15.4854 1.26646L16.0314 0.720459C15.2754 0.552458 14.5824 0.587458 13.9524 0.825459C13.3224 1.06346 12.8359 1.45896 12.4929 2.01196C12.1499 2.56496 11.9924 3.20546 12.0204 3.93346C12.0344 4.00346 12.0414 4.11896 12.0414 4.27996C12.0414 4.44096 12.0414 4.56346 12.0414 4.64746C12.0834 4.87146 12.0624 5.08146 11.9784 5.27746C11.9084 5.43146 11.7824 5.60646 11.6004 5.80246C10.2144 7.16046 8.14941 9.22546 5.40541 11.9975C5.18141 12.2215 4.88741 12.3335 4.52341 12.3335L4.04041 12.2915C3.66241 12.2635 3.37541 12.2495 3.17941 12.2495C2.87141 12.2495 2.60541 12.2845 2.38141 12.3545C1.84941 12.5365 1.39441 12.8725 1.01641 13.3625C0.680406 13.8105 0.463406 14.318 0.365406 14.885C0.267406 15.452 0.316406 15.9525 0.512406 16.3865L2.04541 14.7065C2.12941 14.6085 2.20641 14.5385 2.27641 14.4965C2.36041 14.4405 2.46541 14.4195 2.59141 14.4335C3.13741 14.5175 3.51541 14.6085 3.72541 14.7065C3.99141 14.8185 4.19441 14.9935 4.33441 15.2315C4.46041 15.4415 4.60041 15.8125 4.75441 16.3445C4.82441 16.5825 4.83491 16.782 4.78591 16.943C4.73691 17.104 4.62141 17.2615 4.43941 17.4155C4.17341 17.6255 3.78841 17.9545 3.28441 18.4025L2.92741 18.7175C3.68341 18.9555 4.39041 18.9625 5.04841 18.7385C5.69241 18.5285 6.19291 18.1435 6.54991 17.5835C6.90691 17.0235 7.06441 16.3865 7.02241 15.6725L6.95941 14.7695C6.94541 14.6015 6.96291 14.4545 7.01191 14.3285C7.06091 14.2025 7.14841 14.0765 7.27441 13.9505L8.11441 13.1105C10.3404 10.9125 11.9994 9.24646 13.0914 8.11246ZM13.4484 10.7585C13.2384 10.5345 13.0599 10.419 12.9129 10.412C12.7659 10.405 12.6154 10.5205 12.4614 10.7585C12.3914 10.8565 12.3144 10.9265 12.2304 10.9685C12.0484 11.0945 11.9574 11.217 11.9574 11.336C11.9574 11.455 12.0414 11.5915 12.2094 11.7455C12.6994 12.2215 13.4344 12.9495 14.4144 13.9295L15.8844 15.3785C16.0804 15.5745 16.1994 15.7285 16.2414 15.8405C16.3114 16.0365 16.2589 16.2115 16.0839 16.3655C15.9089 16.5195 15.7374 16.5615 15.5694 16.4915C15.4434 16.4495 15.2964 16.3375 15.1284 16.1555L13.9734 15.0005C12.9234 13.9925 12.1534 13.2225 11.6634 12.6905C11.4254 12.4385 11.2259 12.3055 11.0649 12.2915C10.9039 12.2775 10.7254 12.4035 10.5294 12.6695C10.4594 12.7535 10.3824 12.8305 10.2984 12.9005C10.1584 12.9985 10.0884 13.0965 10.0884 13.1945C10.0884 13.2925 10.1514 13.4045 10.2774 13.5305L12.0414 15.2945C13.3574 16.6105 14.3514 17.5905 15.0234 18.2345C15.3454 18.5565 15.7024 18.749 16.0944 18.812C16.4864 18.875 16.8924 18.8155 17.3124 18.6335C18.0404 18.3115 18.4534 17.7235 18.5514 16.8695C18.5514 16.5055 18.4814 16.1695 18.3414 15.8615C18.2294 15.6095 18.0474 15.3505 17.7954 15.0845C16.0874 13.4185 14.6384 11.9765 13.4484 10.7585ZM1.49941 3.76546C1.51341 3.77946 1.53441 3.80046 1.56241 3.82846C1.82841 4.09446 2.03841 4.27646 2.19241 4.37446C2.45841 4.52846 2.73141 4.58446 3.01141 4.54246C3.17941 4.52846 3.33341 4.54946 3.47341 4.60546C3.58541 4.66146 3.71141 4.75246 3.85141 4.87846C4.18741 5.21446 4.69141 5.71496 5.36341 6.37996C6.03541 7.04496 6.53241 7.54546 6.85441 7.88146C6.99441 8.03546 7.12041 8.09846 7.23241 8.07046C7.31641 8.05646 7.43191 7.97946 7.57891 7.83946C7.72591 7.69946 7.79941 7.58046 7.79941 7.48246C7.79941 7.38446 7.72941 7.26546 7.58941 7.12546C7.11341 6.66346 6.40641 5.96346 5.46841 5.02546L4.60741 4.16446C4.41141 3.99646 4.29241 3.86346 4.25041 3.76546C4.16641 3.59746 4.17341 3.41546 4.27141 3.21946C4.27141 2.91146 4.18041 2.63146 3.99841 2.37946C3.88641 2.22546 3.69041 2.02246 3.41041 1.77046L3.32641 1.68646C2.99041 1.36446 2.75941 1.16846 2.63341 1.09846C2.47941 1.01446 2.31841 1.02146 2.15041 1.11946C2.05241 1.17546 1.83541 1.37146 1.49941 1.70746L1.47841 1.72846C1.10041 2.10646 0.869406 2.35846 0.785406 2.48446C0.687406 2.66646 0.694406 2.84146 0.806406 3.00946C0.876406 3.13546 1.10741 3.38746 1.49941 3.76546Z" fill="#E3912C"/>
</svg>
