<svg width="28" height="23" viewBox="0 0 28 23" fill="none" xmlns="http://www.w3.org/2000/svg">
<path d="M21.8477 12.5312C21.8294 12.3672 21.7884 12.2122 21.7246 12.0664C21.6608 11.9206 21.5651 11.793 21.4375 11.6836C20.4167 10.7721 19.2682 10.0749 17.9922 9.5918C16.7161 9.10872 15.3854 8.86719 14 8.86719C12.6146 8.86719 11.2839 9.10872 10.0078 9.5918C8.73177 10.0749 7.58333 10.7721 6.5625 11.6836C6.4349 11.793 6.33919 11.9206 6.27539 12.0664C6.21159 12.2122 6.17057 12.3672 6.15234 12.5312C6.15234 12.6953 6.18424 12.8548 6.24805 13.0098C6.31185 13.1647 6.39844 13.2969 6.50781 13.4062L8.75 15.6484C8.96875 15.8672 9.23307 15.9857 9.54297 16.0039C9.85286 16.0221 10.1263 15.931 10.3633 15.7305C10.8737 15.293 11.4388 14.9603 12.0586 14.7324C12.6784 14.5046 13.3255 14.3906 14 14.3906C14.6745 14.3906 15.3216 14.5046 15.9414 14.7324C16.5612 14.9603 17.1263 15.293 17.6367 15.7305C17.7461 15.8216 17.8691 15.89 18.0059 15.9355C18.1426 15.9811 18.2747 16.0039 18.4023 16.0039C18.5482 16.0039 18.694 15.9766 18.8398 15.9219C18.9857 15.8672 19.1224 15.776 19.25 15.6484L21.4922 13.4062C21.6016 13.2969 21.6882 13.1647 21.752 13.0098C21.8158 12.8548 21.8477 12.6953 21.8477 12.5312ZM18.4023 14.8281C17.7826 14.2995 17.0944 13.8984 16.3379 13.625C15.5814 13.3516 14.8021 13.2148 14 13.2148C13.1979 13.2148 12.4186 13.3516 11.6621 13.625C10.9056 13.8984 10.2174 14.2995 9.59766 14.8281L7.35547 12.5586C8.26693 11.7565 9.29232 11.1367 10.4316 10.6992C11.571 10.2617 12.7604 10.043 14 10.043C15.2396 10.043 16.429 10.2617 17.5684 10.6992C18.7077 11.1367 19.7331 11.7565 20.6445 12.5586L18.4023 14.8281ZM15.75 18.3008C15.513 18.0638 15.2441 17.8815 14.9434 17.7539C14.6426 17.6263 14.3281 17.5625 14 17.5625C13.6719 17.5625 13.3574 17.6263 13.0566 17.7539C12.7559 17.8815 12.487 18.0638 12.25 18.3008C11.7578 18.7747 11.5117 19.3581 11.5117 20.0508C11.5117 20.7435 11.7578 21.3359 12.25 21.8281C12.487 22.0651 12.7604 22.2428 13.0703 22.3613C13.3802 22.4798 13.6901 22.5391 14 22.5391C14.3099 22.5391 14.6198 22.4798 14.9297 22.3613C15.2396 22.2428 15.513 22.0651 15.75 21.8281C15.987 21.5911 16.1693 21.3177 16.2969 21.0078C16.4245 20.6979 16.4883 20.3789 16.4883 20.0508C16.4883 19.7227 16.4245 19.4082 16.2969 19.1074C16.1693 18.8066 15.987 18.5378 15.75 18.3008ZM14.9297 20.9805C14.6745 21.2357 14.3646 21.3633 14 21.3633C13.6354 21.3633 13.3255 21.2357 13.0703 20.9805C12.8151 20.7253 12.6875 20.4154 12.6875 20.0508C12.6875 19.6862 12.8151 19.3763 13.0703 19.1211C13.1979 19.0117 13.3392 18.9206 13.4941 18.8477C13.6491 18.7747 13.8177 18.7383 14 18.7383C14.1823 18.7383 14.3509 18.7747 14.5059 18.8477C14.6608 18.9206 14.8021 19.0117 14.9297 19.1211C15.0573 19.2487 15.153 19.3945 15.2168 19.5586C15.2806 19.7227 15.3125 19.8867 15.3125 20.0508C15.3125 20.2331 15.2806 20.4017 15.2168 20.5566C15.153 20.7116 15.0573 20.8529 14.9297 20.9805ZM27.6172 5.53125C25.7214 3.74479 23.5885 2.40495 21.2188 1.51172C18.849 0.60026 16.4427 0.144531 14 0.144531C11.5573 0.144531 9.15104 0.60026 6.78125 1.51172C4.41146 2.40495 2.27865 3.74479 0.382812 5.53125C0.255208 5.64062 0.159505 5.76823 0.0957031 5.91406C0.031901 6.0599 0 6.21484 0 6.37891C0 6.54297 0.0273438 6.69792 0.0820312 6.84375C0.136719 6.98958 0.227865 7.11719 0.355469 7.22656L2.59766 9.49609C2.81641 9.71484 3.08529 9.82878 3.4043 9.83789C3.72331 9.847 4.0013 9.74219 4.23828 9.52344C4.89453 8.90365 5.60547 8.35677 6.37109 7.88281C7.11849 7.40885 7.9069 7.00781 8.73633 6.67969C9.56575 6.35156 10.4271 6.10547 11.3203 5.94141C12.1953 5.77734 13.0885 5.69531 14 5.69531C14.9115 5.69531 15.8047 5.77734 16.6797 5.94141C17.5729 6.10547 18.4342 6.35156 19.2637 6.67969C20.0931 7.00781 20.8815 7.40885 21.6289 7.88281C22.3945 8.35677 23.1055 8.90365 23.7617 9.52344C23.8893 9.63281 24.0215 9.71029 24.1582 9.75586C24.2949 9.80143 24.4362 9.82422 24.582 9.82422C24.7279 9.82422 24.8737 9.79688 25.0195 9.74219C25.1654 9.6875 25.293 9.60547 25.4023 9.49609L27.6445 7.22656C27.7721 7.11719 27.8633 6.98958 27.918 6.84375C27.9727 6.69792 28 6.54297 28 6.37891C28 6.21484 27.9681 6.0599 27.9043 5.91406C27.8405 5.76823 27.7448 5.64062 27.6172 5.53125ZM24.582 8.64844C23.8529 7.97396 23.0781 7.38151 22.2578 6.87109C21.4375 6.36068 20.5807 5.92773 19.6875 5.57227C18.7943 5.2168 17.8646 4.95703 16.8984 4.79297C15.9505 4.61068 14.9844 4.51953 14 4.51953C13.0156 4.51953 12.0495 4.61068 11.1016 4.79297C10.1354 4.95703 9.20573 5.2168 8.3125 5.57227C7.41927 5.92773 6.5625 6.36068 5.74219 6.87109C4.92188 7.38151 4.14714 7.97396 3.41797 8.64844L1.17578 6.40625C2.98047 4.71094 4.99479 3.44401 7.21875 2.60547C9.44271 1.76693 11.7031 1.34766 14 1.34766C16.2969 1.34766 18.5573 1.76693 20.7812 2.60547C23.0052 3.44401 25.0195 4.71094 26.8242 6.40625L24.582 8.64844Z" fill="#E3912C"/>
</svg>
