<svg width="30" height="31" viewBox="0 0 30 31" fill="none" xmlns="http://www.w3.org/2000/svg">
<rect y="0.730469" width="30" height="30" rx="5" fill="#E3912C"/>
<rect y="0.730469" width="30" height="30" rx="5" fill="#E3912C"/>
<path d="M22.1426 11.8984C22.4707 13.0469 22.4707 15.5078 22.4707 15.5078C22.4707 15.5078 22.4707 17.9414 22.1426 19.1172C21.9785 19.7734 21.459 20.2656 20.8301 20.4297C19.6543 20.7305 15.0059 20.7305 15.0059 20.7305C15.0059 20.7305 10.3301 20.7305 9.1543 20.4297C8.52539 20.2656 8.00586 19.7734 7.8418 19.1172C7.51367 17.9414 7.51367 15.5078 7.51367 15.5078C7.51367 15.5078 7.51367 13.0469 7.8418 11.8984C8.00586 11.2422 8.52539 10.7227 9.1543 10.5586C10.3301 10.2305 15.0059 10.2305 15.0059 10.2305C15.0059 10.2305 19.6543 10.2305 20.8301 10.5586C21.459 10.7227 21.9785 11.2422 22.1426 11.8984ZM13.4746 17.7227L17.3574 15.5078L13.4746 13.293V17.7227Z" fill="white"/>
</svg>
